# xmcd
#
# Track frame offsets:
#	150
#	34484
#	43551
#	79748
#	114366
#	139142
#	162703
#	190061
#	216992
#	236771
#	263975
#	292030
#
# Disc length: 4243 seconds
#
# Revision: 2
# Processed by: cddbd v1.5PL3 Copyright (c) Steve Scherf et al.
# Submitted via: CDmax 1.9
#
DISCID=b810910c
DTITLE=Various Artist - space is no place 2
DYEAR=2004
DGENRE=Blues
TTITLE0=aero and anderegg - from this more confusion comes
TTITLE1=tuba mirum - the last crusade
TTITLE2=spaceman - insalubrity
TTITLE3=beard-o - trinity
TTITLE4=chuck bettis and toshio kajiwara - before and during phenomena (excerp
TTITLE4=t)
TTITLE5=lucerne - djindjic
TTITLE6=verbalala - time
TTITLE7=chaw mank - horses with me
TTITLE8=cocaine - overhell
TTITLE9=squaw - cave of the sleeping lizard
TTITLE10=tan as fuck - zodiac heat
TTITLE11=jah division - isolation dub
EXTD=
EXTT0=
EXTT1=
EXTT2=
EXTT3=
EXTT4=
EXTT5=
EXTT6=
EXTT7=
EXTT8=
EXTT9=
EXTT10=
EXTT11=
PLAYORDER=
